<svg xmlns="http://www.w3.org/2000/svg" xmlns:xlink="http://www.w3.org/1999/xlink" width="36.305" height="23.13" viewBox="0 0 36.305 23.13">
  <defs>
    <linearGradient id="linear-gradient" x1="0.5" y1="-0.736" x2="0.5" y2="1.598" gradientUnits="objectBoundingBox">
      <stop offset="0" stop-color="#007aff"/>
      <stop offset="1" stop-color="#00a7ff"/>
    </linearGradient>
    <linearGradient id="linear-gradient-2" x1="0.5" y1="-0.264" x2="0.5" y2="1.179" xlink:href="#linear-gradient"/>
  </defs>
  <g id="Group_662" data-name="Group 662" transform="translate(-711.568 -241.989)">
    <path id="Path_154" data-name="Path 154" d="M736.04,254.809a2.37,2.37,0,0,0-.734-.592,3.049,3.049,0,0,0-1.057-.311,1.93,1.93,0,0,0,1.2-.794,2.3,2.3,0,0,0,.333-1.363,2.666,2.666,0,0,0-.734-1.828,3.083,3.083,0,0,0-2.047-.766v-1.083q0-.712-.658-.712a.647.647,0,0,0-.476.169.74.74,0,0,0-.169.543v1.05h-1.171a2.5,2.5,0,0,0-.74.092.968.968,0,0,0-.455.291,1.1,1.1,0,0,0-.225.488,3.481,3.481,0,0,0-.059.684v7.6a2.842,2.842,0,0,0,.065.668.835.835,0,0,0,.236.421.93.93,0,0,0,.448.219,3.337,3.337,0,0,0,.706.061H731.7v1.306a.742.742,0,0,0,.169.541v0a.641.641,0,0,0,.478.169q.659,0,.658-.711v-1.3h.021a5.13,5.13,0,0,0,1.555-.213,3.006,3.006,0,0,0,1.116-.618,2.6,2.6,0,0,0,.678-.98,3.417,3.417,0,0,0,.23-1.286,3.176,3.176,0,0,0-.137-.937A2.349,2.349,0,0,0,736.04,254.809Zm-4.923-3.933h1.226a1.638,1.638,0,0,1,1.034.3,1.1,1.1,0,0,1,.378.919,1.112,1.112,0,0,1-.367.882,1.494,1.494,0,0,1-1.025.323h-1.247Zm2.854,6.633a2.253,2.253,0,0,1-1.4.362h-1.456l0-2.8h1.413a2.485,2.485,0,0,1,1.45.334,1.224,1.224,0,0,1,.455,1.057A1.249,1.249,0,0,1,733.971,257.509Z" transform="translate(-3.105 -0.954)" fill="url(#linear-gradient)"/>
    <path id="Path_155" data-name="Path 155" d="M742.839,241.989H716.6a5.035,5.035,0,0,0-5.035,5.035v13.061a5.035,5.035,0,0,0,5.035,5.035h26.237a5.034,5.034,0,0,0,5.034-5.035V247.024A5.034,5.034,0,0,0,742.839,241.989Zm2.567,18.1a2.57,2.57,0,0,1-2.567,2.567h-1.585l.061-.152a7.109,7.109,0,0,1,3.938-3.938l.153-.062Zm-5.873,2.567H719.91a8.729,8.729,0,0,0-5.875-5.874V250.33a8.729,8.729,0,0,0,5.875-5.874h19.622a8.731,8.731,0,0,0,5.874,5.874v6.447A8.729,8.729,0,0,0,739.533,262.652Zm-22.93,0a2.57,2.57,0,0,1-2.567-2.567V258.5l.154.062a7.115,7.115,0,0,1,3.938,3.938l.062.153Zm-2.567-15.628a2.57,2.57,0,0,1,2.567-2.567h1.586l-.062.153a7.113,7.113,0,0,1-3.938,3.938l-.153.061Zm28.8-2.567a2.57,2.57,0,0,1,2.567,2.567v1.585l-.152-.061a7.108,7.108,0,0,1-3.938-3.938l-.062-.153Z" fill="url(#linear-gradient-2)"/>
  </g>
</svg>
