<svg xmlns="http://www.w3.org/2000/svg" xmlns:xlink="http://www.w3.org/1999/xlink" width="36.362" height="33.871" viewBox="0 0 36.362 33.871">
  <defs>
    <linearGradient id="linear-gradient" x1="0.5" x2="0.5" y2="1" gradientUnits="objectBoundingBox">
      <stop offset="0" stop-color="#007aff"/>
      <stop offset="1" stop-color="#00a7ff"/>
    </linearGradient>
  </defs>
  <path id="Union_11" data-name="Union 11" d="M-5436.529,29.547A14.428,14.428,0,0,1-5441,19.106a14.427,14.427,0,0,1,4.471-10.44,15.428,15.428,0,0,1,10.794-4.324,15.433,15.433,0,0,1,10.795,4.324,14.429,14.429,0,0,1,4.471,10.44,14.37,14.37,0,0,1-2.586,8.2,1.217,1.217,0,0,1-1.654.318,1.131,1.131,0,0,1-.329-1.6,12.114,12.114,0,0,0,2.184-6.914,12.689,12.689,0,0,0-12.88-12.458,12.688,12.688,0,0,0-12.879,12.458,12.688,12.688,0,0,0,12.879,12.458,13.188,13.188,0,0,0,6.664-1.794,1.217,1.217,0,0,1,1.638.389,1.133,1.133,0,0,1-.4,1.585,15.631,15.631,0,0,1-7.9,2.127A15.428,15.428,0,0,1-5436.529,29.547Zm5.427-2.865a2.178,2.178,0,0,1-.841-2.517l1.018-3.008-2.665-1.86a2.222,2.222,0,0,1-.852-2.54,2.3,2.3,0,0,1,2.223-1.573h3.314l1.007-3a2.3,2.3,0,0,1,2.223-1.558,2.3,2.3,0,0,1,2.224,1.556l1.008,3h3.313a2.3,2.3,0,0,1,2.223,1.573,2.223,2.223,0,0,1-.852,2.54l-2.665,1.86,1.017,3.008a2.179,2.179,0,0,1-.841,2.517,2.392,2.392,0,0,1-1.382.444A2.391,2.391,0,0,1-5423,26.69l-2.674-1.867-2.673,1.867a2.386,2.386,0,0,1-1.371.437A2.388,2.388,0,0,1-5431.1,26.682Zm6.8-3.748,2.58,1.8-.98-2.9a2.2,2.2,0,0,1,.852-2.524l2.6-1.819h-3.217a2.31,2.31,0,0,1-2.223-1.524l-.987-2.936-.984,2.934a2.315,2.315,0,0,1-2.225,1.526h-3.216l2.6,1.819a2.2,2.2,0,0,1,.853,2.524l-.982,2.9,2.58-1.8a2.383,2.383,0,0,1,1.371-.428A2.378,2.378,0,0,1-5424.3,22.935Zm13.888-14.967V5.59h-2.459a1.1,1.1,0,0,1-1.1-1.076,1.094,1.094,0,0,1,1.1-1.075h2.459V1.062A1.1,1.1,0,0,1-5409.306,0a1.1,1.1,0,0,1,1.111,1.062V3.44h2.459a1.094,1.094,0,0,1,1.1,1.075,1.1,1.1,0,0,1-1.1,1.076h-2.459V7.967a1.094,1.094,0,0,1-1.111,1.062A1.1,1.1,0,0,1-5410.417,7.967Z" transform="translate(5441)" fill="url(#linear-gradient)"/>
</svg>
